<svg xmlns="http://www.w3.org/2000/svg" width="1440" height="620" viewBox="0 0 1440 620" role="img" aria-labelledby="t d"><title id="t">AILORA four-frame project gallery</title><desc id="d">Four reserved media frames for GitHub, Render, Swagger and project workspace screenshots</desc><defs>
<linearGradient id="bg" x1="0" y1="0" x2="1" y2="1"><stop stop-color="#020714"/><stop offset=".48" stop-color="#071c3d"/><stop offset="1" stop-color="#190b3d"/></linearGradient>
<linearGradient id="neon" x1="0" x2="1"><stop stop-color="#52f4ff"/><stop offset=".52" stop-color="#4d8dff"/><stop offset="1" stop-color="#bd6cff"/></linearGradient>
<radialGradient id="planet"><stop stop-color="#7cffff"/><stop offset=".42" stop-color="#1779ec"/><stop offset="1" stop-color="#071c65"/></radialGradient>
<filter id="glow"><feGaussianBlur stdDeviation="5" result="b"/><feMerge><feMergeNode in="b"/><feMergeNode in="SourceGraphic"/></feMerge></filter>
</defs><rect width="1440" height="620" rx="28" fill="url(#bg)"/><circle cx="30" cy="30" r="1.0" fill="#fff" opacity="0.25"/><circle cx="167" cy="113" r="1.6" fill="#fff" opacity="0.37"/><circle cx="304" cy="196" r="1.0" fill="#fff" opacity="0.49"/><circle cx="441" cy="279" r="1.6" fill="#fff" opacity="0.61"/><circle cx="578" cy="362" r="1.0" fill="#fff" opacity="0.73"/><circle cx="715" cy="445" r="1.6" fill="#fff" opacity="0.25"/><circle cx="852" cy="98" r="1.0" fill="#fff" opacity="0.37"/><circle cx="989" cy="181" r="1.6" fill="#fff" opacity="0.49"/><circle cx="1126" cy="264" r="1.0" fill="#fff" opacity="0.61"/><circle cx="1263" cy="347" r="1.6" fill="#fff" opacity="0.73"/><circle cx="1400" cy="430" r="1.0" fill="#fff" opacity="0.25"/><circle cx="157" cy="83" r="1.6" fill="#fff" opacity="0.37"/><circle cx="294" cy="166" r="1.0" fill="#fff" opacity="0.49"/><circle cx="431" cy="249" r="1.6" fill="#fff" opacity="0.61"/><circle cx="568" cy="332" r="1.0" fill="#fff" opacity="0.73"/><circle cx="705" cy="415" r="1.6" fill="#fff" opacity="0.25"/><circle cx="842" cy="68" r="1.0" fill="#fff" opacity="0.37"/><circle cx="979" cy="151" r="1.6" fill="#fff" opacity="0.49"/><circle cx="1116" cy="234" r="1.0" fill="#fff" opacity="0.61"/><circle cx="1253" cy="317" r="1.6" fill="#fff" opacity="0.73"/><circle cx="1390" cy="400" r="1.0" fill="#fff" opacity="0.25"/><circle cx="147" cy="53" r="1.6" fill="#fff" opacity="0.37"/><circle cx="284" cy="136" r="1.0" fill="#fff" opacity="0.49"/><circle cx="421" cy="219" r="1.6" fill="#fff" opacity="0.61"/><circle cx="558" cy="302" r="1.0" fill="#fff" opacity="0.73"/><circle cx="695" cy="385" r="1.6" fill="#fff" opacity="0.25"/><circle cx="832" cy="38" r="1.0" fill="#fff" opacity="0.37"/><circle cx="969" cy="121" r="1.6" fill="#fff" opacity="0.49"/><text x="720" y="58" text-anchor="middle" fill="#fff" font-family="Arial" font-size="32" font-weight="800">PROJECT VISUAL GALLERY</text><text x="720" y="88" text-anchor="middle" fill="#9cb7dc" font-family="Arial" font-size="14" letter-spacing="3">MEDIA PLACEHOLDERS • FOUR APPROVED SCREENSHOTS WILL LAND HERE</text><g font-family="Arial"><g transform="translate(120 125)"><rect width="560" height="190" rx="22" fill="#06152e" stroke="#54efff" stroke-width="3"/><rect x="22" y="22" width="516" height="108" rx="14" fill="#0b244a" stroke="#335782"/><path d="M50 105L150 55L250 100L350 42L500 110" fill="none" stroke="#54efff" stroke-width="3" opacity=".55"/><text x="280" y="160" text-anchor="middle" fill="#fff" font-size="17" font-weight="700">GitHub</text><text x="280" y="181" text-anchor="middle" fill="#8ea7c8" font-size="11">APPROVED SCREENSHOT SLOT</text></g><g transform="translate(760 125)"><rect width="560" height="190" rx="22" fill="#06152e" stroke="#568cff" stroke-width="3"/><rect x="22" y="22" width="516" height="108" rx="14" fill="#0b244a" stroke="#335782"/><path d="M50 105L150 55L250 100L350 42L500 110" fill="none" stroke="#568cff" stroke-width="3" opacity=".55"/><text x="280" y="160" text-anchor="middle" fill="#fff" font-size="17" font-weight="700">Render</text><text x="280" y="181" text-anchor="middle" fill="#8ea7c8" font-size="11">APPROVED SCREENSHOT SLOT</text></g><g transform="translate(120 355)"><rect width="560" height="190" rx="22" fill="#06152e" stroke="#9277ff" stroke-width="3"/><rect x="22" y="22" width="516" height="108" rx="14" fill="#0b244a" stroke="#335782"/><path d="M50 105L150 55L250 100L350 42L500 110" fill="none" stroke="#9277ff" stroke-width="3" opacity=".55"/><text x="280" y="160" text-anchor="middle" fill="#fff" font-size="17" font-weight="700">Swagger</text><text x="280" y="181" text-anchor="middle" fill="#8ea7c8" font-size="11">APPROVED SCREENSHOT SLOT</text></g><g transform="translate(760 355)"><rect width="560" height="190" rx="22" fill="#06152e" stroke="#c26cff" stroke-width="3"/><rect x="22" y="22" width="516" height="108" rx="14" fill="#0b244a" stroke="#335782"/><path d="M50 105L150 55L250 100L350 42L500 110" fill="none" stroke="#c26cff" stroke-width="3" opacity=".55"/><text x="280" y="160" text-anchor="middle" fill="#fff" font-size="17" font-weight="700">Project Workspace</text><text x="280" y="181" text-anchor="middle" fill="#8ea7c8" font-size="11">APPROVED SCREENSHOT SLOT</text></g></g></svg>